<svg xmlns="http://www.w3.org/2000/svg" viewBox="0 0 446.71 517"><defs><style>.cls-1{fill:#60aec2;}.cls-2{fill:#fff;stroke:#60aec2;stroke-miterlimit:10;stroke-width:10px;}</style></defs><g id="圖層_2" data-name="圖層 2"><g id="圖層_1-2" data-name="圖層 1"><path class="cls-1" d="M19.08,370S4.57,380.16,9,393.42,30.7,487.72,60.9,511.3C78.58,517,379.22,517,379.22,517a49.61,49.61,0,0,0,14-11.6c5.89-7.36,34.23-64.09,45.28-112,0-9.58,1.74-14-14.23-22.47"/><path class="cls-2" d="M9.4,366.53c-7.06-6.39-4.55-68.44,0-115C18.25,161.11,48.06,93.16,97.22,50.37,136.79,15.93,179.61,5,223.94,5c51.67,0,93.61,15.08,127.3,42.63C404.32,91.06,428.4,183,433.18,213.34c8.41,53.44,12.37,127.53,3.53,152.09-4.33,12-108,12.27-212.72,9.4C114.74,371.83,20.22,376.34,9.4,366.53Z"/><path class="cls-1" d="M59.81,365.84a6.4,6.4,0,0,1-1.43-2.44,25.31,25.31,0,0,1-.79-2.74c-.41-1.85-.69-3.73-.94-5.61-.46-3.76-.73-7.55-.92-11.33-.34-7.57-.36-15.15-.27-22.72s.38-15.14.76-22.7.83-15.11,1.52-22.68a332.59,332.59,0,0,1,6.9-45.14,244.45,244.45,0,0,1,14.15-43.66l2.4-5.25c.8-1.75,1.58-3.51,2.5-5.2l2.67-5.13c.45-.85.86-1.73,1.35-2.56l1.47-2.49,2.95-5c1-1.66,2.12-3.23,3.18-4.84s2.13-3.24,3.27-4.8l3.5-4.64,1.75-2.31c.59-.77,1.25-1.49,1.86-2.24l3.77-4.43,1-1.1,1-1.06,2-2.1c1.35-1.39,2.66-2.83,4-4.19a168.54,168.54,0,0,1,17.84-15A137.84,137.84,0,0,1,177.25,94a167.18,167.18,0,0,1,46.09-6.39,209.48,209.48,0,0,1,23.2,1.29,172.2,172.2,0,0,1,22.91,4.33A143.71,143.71,0,0,1,312.14,112l2.45,1.6,2.37,1.71,2.38,1.7c.79.57,1.54,1.19,2.31,1.79,1.53,1.21,3.08,2.36,4.57,3.7l2.25,2c.73.67,1.43,1.37,2.15,2.06a119.51,119.51,0,0,1,15.06,18c8.8,12.87,15.42,26.89,20.84,41.22a320,320,0,0,1,12.92,43.92c1.62,7.44,3,14.92,4.19,22.46s2.12,15,3.05,22.52c1.8,15,3.37,30.11,4.11,45.25.37,7.57.49,15.16.2,22.75l-.14,2.84c-.05.94-.15,1.89-.23,2.83l-.25,2.84c-.09.94-.26,1.88-.38,2.82l-.41,2.81-.61,2.78-.3,1.39c-.1.46-.29.91-.42,1.36l-.89,2.69.71-2.74c.1-.46.25-.9.32-1.37l.21-1.4.42-2.79.22-2.81c.06-.94.16-1.87.19-2.81l.06-2.83c0-.94.05-1.87,0-2.81l-.06-2.83c-.14-7.51-.66-15-1.45-22.51-1.55-15-3.7-29.9-6.2-44.76-1.23-7.42-2.49-14.89-3.85-22.25s-3.06-14.67-4.91-21.92-3.91-14.44-6.19-21.56-4.81-14.13-7.62-21-5.9-13.65-9.35-20.19a165.66,165.66,0,0,0-11.41-18.87,110.9,110.9,0,0,0-14.17-16.47c-.66-.61-1.3-1.24-2-1.83l-2.06-1.73c-1.32-1.17-2.83-2.25-4.28-3.36-.73-.54-1.44-1.12-2.19-1.64l-2.25-1.56-2.25-1.56L307,119.92a142.56,142.56,0,0,0-19.3-10.25,138.08,138.08,0,0,0-20.72-7,161.94,161.94,0,0,0-21.58-4,199.71,199.71,0,0,0-22-1.12,156.89,156.89,0,0,0-43.4,5.76,124.12,124.12,0,0,0-20.37,7.78,146.48,146.48,0,0,0-18.84,11.06,162.36,162.36,0,0,0-17,13.88c-1.33,1.26-2.58,2.6-3.88,3.9L118,141.89l-1,1-.91,1-3.63,4.14c-.6.7-1.23,1.36-1.8,2.08l-1.7,2.18-3.39,4.35c-1.11,1.47-2.12,3-3.18,4.52s-2.14,3-3.11,4.57l-2.92,4.7L94.9,172.8c-.49.78-.91,1.61-1.36,2.41l-2.69,4.86c-.93,1.6-1.71,3.28-2.53,4.94l-2.44,5A251,251,0,0,0,71,232a334.77,334.77,0,0,0-8.38,44.11c-2,14.91-3.32,29.94-4.37,45-.51,7.52-.89,15.05-1,22.58-.06,3.77,0,7.54.17,11.29.12,1.88.27,3.76.56,5.61a28,28,0,0,0,.59,2.75A6.5,6.5,0,0,0,59.81,365.84Z"/><ellipse class="cls-1" cx="223.35" cy="27.15" rx="23.78" ry="7.07"/><ellipse class="cls-1" cx="171.3" cy="31.97" rx="13.18" ry="7.07" transform="translate(-2.57 43.6) rotate(-14.4)"/><ellipse class="cls-1" cx="276.84" cy="32.05" rx="7.07" ry="13.18" transform="translate(166.23 287.84) rotate(-73.22)"/><ellipse class="cls-1" cx="315.82" cy="54.69" rx="8.65" ry="16.89" transform="translate(124.97 312.2) rotate(-63.28)"/><ellipse class="cls-1" cx="130.4" cy="54.69" rx="16.89" ry="8.65" transform="translate(-10.93 59.18) rotate(-24.57)"/></g></g></svg>