<svg xmlns="http://www.w3.org/2000/svg" viewBox="0 0 512 276.7"><defs><style>.cls-1{isolation:isolate;}.cls-2{fill:#787878;}.cls-3{fill:red;}</style></defs><g id="喇뒨쏛_2" data-name="喇뒨쏛 2"><g id="喇뒨쏛_1-2" data-name="喇뒨쏛 1"><g class="cls-1"><path class="cls-2" d="M457.92,21a9.35,9.35,0,0,1,9.33,9.33v216a9.34,9.34,0,0,1-9.33,9.33H30.33A9.34,9.34,0,0,1,21,246.37v-216A9.35,9.35,0,0,1,30.33,21H457.92m0-21H30.33A30.33,30.33,0,0,0,0,30.33v216A30.33,30.33,0,0,0,30.33,276.7H457.92a30.33,30.33,0,0,0,30.33-30.33v-216A30.33,30.33,0,0,0,457.92,0Z"/></g><rect class="cls-2" x="469.29" y="91.11" width="42.71" height="94.49" rx="17.18"/><rect class="cls-3" x="47.43" y="44.79" width="20" height="187.12"/></g></g></svg>